<svg width="921" height="412" viewBox="0 0 921 412" fill="none" xmlns="http://www.w3.org/2000/svg">
<g clip-path="url(#clip0_6_261)">
<path d="M384.72 149.231H189.786C187.727 149.234 185.753 150.053 184.297 151.509C182.841 152.965 182.022 154.939 182.019 156.998V195.724C191.743 195.952 198.054 203.976 199.584 213.717V248.823H200.322C200.44 248.824 200.552 248.87 200.635 248.953C200.718 249.036 200.765 249.149 200.765 249.266V267.947C200.765 268.064 200.718 268.177 200.635 268.26C200.552 268.343 200.44 268.39 200.322 268.39H199.584V381.299C199.584 383.78 199.559 388.306 199.559 388.306H384.72C386.779 388.304 388.753 387.485 390.209 386.029C391.665 384.572 392.484 382.598 392.487 380.539V156.998C392.484 154.939 391.665 152.965 390.209 151.509C388.753 150.053 386.779 149.234 384.72 149.231V149.231Z" fill="#FF4117" fill-opacity="0.74"/>
<path d="M746.9 21.8102V233.711H405.969V140.415C405.965 136.179 404.28 132.118 401.285 129.122C398.289 126.127 394.228 124.442 389.991 124.438H326.052V21.8102H746.9Z" fill="#FF4117" fill-opacity="0.74"/>
<path d="M767.949 263.583H406.35V262.107H766.473V12.5516C766.469 9.61537 765.301 6.80034 763.225 4.72411C761.149 2.64787 758.334 1.47998 755.398 1.47665H313.139C310.203 1.47998 307.388 2.64787 305.311 4.72411C303.235 6.80034 302.067 9.61537 302.064 12.5516V123.481H300.587V12.5516C300.591 9.22387 301.915 6.03349 304.268 3.68042C306.621 1.32735 309.811 0.00374519 313.139 0H755.398C758.726 0.0037399 761.916 1.32734 764.269 3.6804C766.622 6.03347 767.946 9.22386 767.949 12.5516V263.583Z" fill="#3F3D56"/>
<path d="M733.687 308.621H406.35V307.145H733.687C742.379 307.135 750.713 303.678 756.859 297.531C763.005 291.385 766.463 283.051 766.473 274.359V263.583H406.35V262.107H767.949V274.359C767.939 283.443 764.326 292.152 757.903 298.575C751.479 304.998 742.771 308.611 733.687 308.621V308.621Z" fill="#3F3D56"/>
<path d="M636.539 380.978C618.291 363.456 606.287 340.593 602.428 308.621H467.939C466.571 338.533 454.643 360.966 433.126 380.899L430.853 380.978C453.052 360.86 465.28 338.262 466.494 307.854L466.522 307.145H603.741L603.818 307.798C607.607 340.311 619.863 363.321 638.56 380.859L636.539 380.978Z" fill="#3F3D56"/>
<path d="M389.634 411.524H182.461V410.048H389.634C393.87 410.043 397.931 408.358 400.926 405.363C403.922 402.368 405.606 398.307 405.611 394.071V140.754C405.606 136.519 403.922 132.458 400.926 129.462C397.931 126.467 393.87 124.782 389.634 124.778H182.461C178.225 124.782 174.164 126.467 171.169 129.462C168.174 132.458 166.489 136.519 166.484 140.754V195.422H165.008V140.754C165.013 136.127 166.854 131.691 170.126 128.419C173.398 125.147 177.834 123.306 182.461 123.301H389.634C394.262 123.306 398.698 125.147 401.97 128.419C405.242 131.691 407.083 136.127 407.088 140.754V394.071C407.083 398.698 405.242 403.134 401.97 406.406C398.698 409.678 394.262 411.519 389.634 411.524V411.524Z" fill="#3F3D56"/>
<path d="M286.048 141.983C285.058 141.983 284.09 141.689 283.266 141.139C282.443 140.589 281.801 139.807 281.422 138.892C281.043 137.977 280.944 136.971 281.137 135.999C281.33 135.028 281.807 134.136 282.507 133.436C283.208 132.736 284.1 132.259 285.071 132.066C286.042 131.872 287.049 131.972 287.964 132.35C288.878 132.729 289.66 133.371 290.211 134.194C290.761 135.018 291.054 135.986 291.054 136.976C291.053 138.303 290.525 139.576 289.586 140.515C288.648 141.453 287.375 141.981 286.048 141.983V141.983ZM286.048 133.127C285.286 133.127 284.542 133.352 283.909 133.775C283.276 134.198 282.783 134.8 282.491 135.503C282.2 136.206 282.124 136.98 282.272 137.727C282.421 138.474 282.788 139.16 283.326 139.698C283.864 140.236 284.55 140.603 285.297 140.752C286.044 140.9 286.818 140.824 287.521 140.532C288.224 140.241 288.825 139.748 289.248 139.115C289.671 138.482 289.897 137.737 289.897 136.976C289.896 135.955 289.49 134.977 288.768 134.255C288.047 133.534 287.068 133.128 286.048 133.127V133.127Z" fill="#3F3D56"/>
<path d="M286.048 405.864C284.784 405.864 283.549 405.49 282.499 404.788C281.448 404.086 280.629 403.088 280.146 401.921C279.662 400.753 279.536 399.469 279.782 398.23C280.029 396.991 280.637 395.852 281.53 394.959C282.424 394.065 283.562 393.457 284.801 393.21C286.041 392.964 287.325 393.09 288.492 393.574C289.66 394.057 290.657 394.876 291.359 395.927C292.061 396.977 292.436 398.212 292.436 399.476C292.434 401.17 291.761 402.793 290.563 403.991C289.365 405.189 287.741 405.863 286.048 405.864V405.864ZM286.048 394.564C285.076 394.564 284.127 394.852 283.319 395.392C282.511 395.932 281.882 396.699 281.51 397.596C281.138 398.494 281.041 399.482 281.23 400.434C281.42 401.387 281.888 402.262 282.575 402.949C283.262 403.636 284.137 404.104 285.09 404.293C286.042 404.483 287.03 404.386 287.928 404.014C288.825 403.642 289.592 403.013 290.132 402.205C290.672 401.397 290.96 400.447 290.96 399.476C290.958 398.174 290.44 396.925 289.519 396.004C288.598 395.084 287.35 394.566 286.048 394.564V394.564Z" fill="#3F3D56"/>
<path d="M180.381 411.952H111.801C106.638 411.946 101.688 409.893 98.0374 406.242C94.3867 402.591 92.3332 397.642 92.3274 392.479V214.895C92.3332 209.732 94.3867 204.782 98.0374 201.132C101.688 197.481 106.638 195.428 111.801 195.422H180.381C185.544 195.428 190.493 197.481 194.144 201.132C197.795 204.782 199.848 209.732 199.854 214.895V246.674C200.204 246.82 200.502 247.067 200.713 247.382C200.923 247.697 201.035 248.068 201.036 248.447L201.035 269.125C201.035 269.504 200.923 269.874 200.712 270.19C200.502 270.505 200.204 270.751 199.854 270.897V392.479C199.848 397.642 197.794 402.592 194.144 406.242C190.493 409.893 185.543 411.946 180.381 411.952V411.952ZM111.801 196.898C107.029 196.904 102.455 198.802 99.0811 202.175C95.7073 205.549 93.8095 210.123 93.804 214.895V392.479C93.8094 397.25 95.7072 401.824 99.081 405.198C102.455 408.572 107.029 410.47 111.801 410.475H180.381C185.152 410.47 189.726 408.572 193.1 405.198C196.474 401.825 198.372 397.25 198.377 392.479V269.568H199.116C199.233 269.568 199.346 269.521 199.429 269.438C199.512 269.355 199.559 269.242 199.559 269.125L199.559 248.447C199.559 248.329 199.512 248.216 199.429 248.133C199.346 248.05 199.233 248.003 199.116 248.003H198.377V214.895C198.372 210.123 196.474 205.549 193.1 202.175C189.726 198.802 185.152 196.904 180.381 196.898H111.801Z" fill="#3F3D56"/>
<path d="M181.137 201.034H172.185C172.596 202.043 172.753 203.138 172.642 204.223C172.531 205.307 172.155 206.348 171.547 207.252C170.939 208.157 170.118 208.898 169.156 209.411C168.194 209.923 167.12 210.192 166.03 210.192H126.742C125.652 210.192 124.578 209.923 123.616 209.411C122.654 208.898 121.833 208.157 121.225 207.252C120.617 206.348 120.241 205.307 120.13 204.223C120.019 203.138 120.176 202.043 120.587 201.034H112.226C108.516 201.034 104.957 202.508 102.333 205.132C99.7093 207.756 98.2353 211.314 98.2352 215.025V392.349C98.2352 396.059 99.7093 399.618 102.333 402.242C104.957 404.866 108.516 406.34 112.226 406.34H181.137C184.847 406.34 188.406 404.866 191.03 402.242C193.654 399.618 195.128 396.059 195.128 392.349V215.025C195.128 211.314 193.654 207.756 191.03 205.132C188.406 202.508 184.847 201.034 181.137 201.034V201.034Z" fill="#FF4117" fill-opacity="0.74"/>
<path d="M920.23 411.663H1.87912C1.76342 411.664 1.64879 411.641 1.54179 411.597C1.43479 411.553 1.33751 411.488 1.25557 411.407C1.17362 411.325 1.1086 411.228 1.06424 411.121C1.01987 411.014 0.997036 410.9 0.997036 410.784C0.997036 410.668 1.01987 410.554 1.06424 410.447C1.1086 410.34 1.17362 410.243 1.25557 410.161C1.33751 410.08 1.43479 410.015 1.54179 409.971C1.64879 409.927 1.76342 409.905 1.87912 409.905H920.23C920.345 409.905 920.46 409.927 920.567 409.971C920.674 410.015 920.771 410.08 920.853 410.161C920.935 410.243 921 410.34 921.045 410.447C921.089 410.554 921.112 410.668 921.112 410.784C921.112 410.9 921.089 411.014 921.045 411.121C921 411.228 920.935 411.325 920.853 411.407C920.771 411.488 920.674 411.553 920.567 411.597C920.46 411.641 920.345 411.664 920.23 411.663V411.663Z" fill="#3F3D56"/>
<path d="M636.995 411.249H432.478C430.441 411.251 428.423 410.851 426.541 410.073C424.658 409.294 422.947 408.152 421.506 406.712C420.065 405.272 418.922 403.563 418.142 401.681C417.362 399.799 416.961 397.781 416.961 395.744C416.961 393.707 417.362 391.69 418.142 389.808C418.922 387.926 420.065 386.216 421.506 384.776C422.947 383.336 424.658 382.194 426.541 381.416C428.423 380.638 430.441 380.238 432.478 380.239H636.995C641.105 380.243 645.046 381.878 647.951 384.785C650.856 387.692 652.488 391.634 652.488 395.744C652.488 399.854 650.856 403.796 647.951 406.703C645.046 409.611 641.105 411.246 636.995 411.249ZM432.478 381.716C428.758 381.716 425.189 383.194 422.559 385.825C419.928 388.456 418.45 392.024 418.45 395.744C418.45 399.465 419.928 403.033 422.559 405.664C425.189 408.295 428.758 409.773 432.478 409.773H636.995C640.716 409.773 644.284 408.295 646.915 405.664C649.546 403.033 651.024 399.465 651.024 395.744C651.024 392.024 649.546 388.456 646.915 385.825C644.284 383.194 640.716 381.716 636.995 381.716H432.478Z" fill="#3F3D56"/>
<path d="M785.495 293.196L791.223 305.172L840.14 288.778L831.686 271.103L785.495 293.196Z" fill="#FFB8B8"/>
<path d="M791.149 333.586L773.148 295.949L787.689 288.994L799.268 313.201C800.971 316.763 801.19 320.856 799.876 324.579C798.562 328.302 795.823 331.351 792.261 333.054L791.149 333.586V333.586Z" fill="#2F2E41"/>
<path d="M773.964 400.141L787.231 399.693L787.789 348.049L772.237 348.967L773.964 400.141Z" fill="#FFB8B8"/>
<path d="M812.974 411.857H771.253V395.738H798.087C802.035 395.738 805.822 397.306 808.614 400.098C811.406 402.89 812.974 406.676 812.974 410.625V411.857V411.857Z" fill="#2F2E41"/>
<path d="M775.055 392.383C773.943 392.383 772.862 392.01 771.987 391.324C771.111 390.637 770.491 389.677 770.225 388.597C762.957 359.396 735.914 212.264 759.828 183.367L760.036 183.115L760.353 183.035C762.032 182.61 793.678 172.812 812.247 188.105L812.464 188.284L822.798 218.199L850.657 259.554C852.182 261.818 853.238 264.366 853.761 267.046C854.284 269.727 854.263 272.484 853.7 275.157C853.138 277.829 852.045 280.361 850.485 282.602C848.926 284.844 846.933 286.75 844.624 288.207L808.042 311.293C807.158 311.826 806.131 312.074 805.101 312.001C804.071 311.929 803.089 311.54 802.289 310.888C801.617 310.331 801.1 309.611 800.788 308.796L793.1 289.576C792.642 288.411 792.634 287.116 793.079 285.946C793.524 284.775 794.39 283.813 795.507 283.247L812.646 274.677C813.115 274.418 813.522 274.06 813.838 273.628C814.155 273.195 814.372 272.699 814.476 272.173C814.523 271.698 814.454 271.218 814.274 270.775C814.095 270.332 813.811 269.94 813.447 269.63L793.552 252.479C793.109 252.097 792.565 251.853 791.986 251.777C791.407 251.7 790.818 251.794 790.292 252.048C789.766 252.301 789.325 252.702 789.023 253.203C788.722 253.703 788.573 254.28 788.595 254.864L793.527 385.067C793.573 386.289 793.169 387.486 792.392 388.431C791.615 389.376 790.519 390.003 789.31 390.195L775.854 392.319C775.59 392.362 775.323 392.383 775.055 392.383Z" fill="#2F2E41"/>
<path d="M809.376 193.413C809.264 193.413 809.15 193.408 809.037 193.4L759.421 189.725C758.732 189.675 758.064 189.467 757.469 189.117C756.874 188.767 756.367 188.284 755.988 187.707C755.61 187.129 755.369 186.472 755.286 185.787C755.202 185.101 755.278 184.406 755.507 183.754C758.559 174.955 758.933 165.448 756.583 156.436C753.351 143.694 753.275 120.003 753.517 107.015C753.572 104.813 754.455 102.713 755.99 101.134C757.525 99.5541 759.599 98.6112 761.798 98.4932L761.798 98.4756L762.798 98.4878C770.881 98.6011 785.714 99.1777 797.851 101.703C801.942 102.55 805.622 104.764 808.287 107.981C810.951 111.198 812.441 115.226 812.511 119.403C812.786 131.461 812.826 147.782 811.458 157.06C810.303 164.887 812.436 179.918 813.809 188.182C813.915 188.825 813.881 189.484 813.707 190.113C813.533 190.742 813.225 191.325 812.803 191.823C812.381 192.32 811.856 192.72 811.265 192.995C810.673 193.269 810.029 193.412 809.376 193.413H809.376Z" fill="#3F3D56"/>
<path d="M827.089 240.71C825.767 240.077 824.6 239.162 823.67 238.029C822.74 236.897 822.07 235.574 821.707 234.154C821.344 232.734 821.296 231.252 821.568 229.812C821.839 228.371 822.423 227.008 823.278 225.818L800.363 127H817.687L837.912 223.871C839.816 225.44 841.078 227.653 841.459 230.091C841.84 232.529 841.314 235.022 839.98 237.098C838.646 239.173 836.597 240.688 834.221 241.353C831.845 242.019 829.307 241.79 827.089 240.71H827.089Z" fill="#FFB8B8"/>
<path d="M718.559 137.705L745.994 111.752L756.33 126.222L730.49 148.961L764.377 175.872C764.622 175.855 764.866 175.834 765.115 175.834C767.201 175.832 769.242 176.431 770.996 177.559C772.75 178.687 774.142 180.296 775.005 182.195C775.868 184.093 776.166 186.2 775.863 188.263C775.561 190.326 774.67 192.258 773.298 193.828C771.925 195.399 770.13 196.54 768.126 197.117C766.122 197.693 763.994 197.68 761.997 197.079C760.001 196.478 758.219 195.314 756.867 193.727C755.514 192.14 754.647 190.197 754.37 188.13L754.263 188.237L718.993 157.671C717.572 156.438 716.424 154.922 715.624 153.219C714.823 151.517 714.389 149.665 714.348 147.784C714.307 145.903 714.661 144.035 715.386 142.299C716.111 140.563 717.192 138.998 718.559 137.705V137.705Z" fill="#FFB8B8"/>
<path d="M802.188 133.332C801.34 133.335 800.509 133.096 799.791 132.644C799.073 132.192 798.499 131.545 798.136 130.778C795.95 126.163 794.445 121.255 793.668 116.208C792.478 107.964 798.21 103.06 804.04 101.991C809.711 100.952 816.618 103.445 818.383 111.374C818.531 112.045 818.646 112.723 818.725 113.406C819.432 119.417 820.098 124.092 820.703 127.302C820.821 127.933 820.804 128.582 820.65 129.206C820.497 129.829 820.212 130.413 819.814 130.917C819.416 131.421 818.915 131.834 818.344 132.128C817.773 132.422 817.146 132.591 816.504 132.622L802.418 133.326C802.341 133.33 802.265 133.332 802.188 133.332Z" fill="#3F3D56"/>
<path d="M782.544 89.9815C799.112 89.9815 812.544 76.55 812.544 59.9815C812.544 43.413 799.112 29.9815 782.544 29.9815C765.975 29.9815 752.544 43.413 752.544 59.9815C752.544 76.55 765.975 89.9815 782.544 89.9815Z" fill="#2F2E41"/>
<path d="M782.725 92.3299C796.29 92.3299 807.286 81.3336 807.286 67.7689C807.286 54.2042 796.29 43.2079 782.725 43.2079C769.16 43.2079 758.164 54.2042 758.164 67.7689C758.164 81.3336 769.16 92.3299 782.725 92.3299Z" fill="#FFB8B8"/>
<path d="M739.132 121.379C738.505 120.808 738.053 120.07 737.83 119.252C737.606 118.434 737.62 117.569 737.87 116.758C739.376 111.879 741.583 107.244 744.42 102.998C749.113 96.1161 756.653 96.3736 761.672 99.5247C766.555 102.59 769.963 109.094 765.907 116.133C765.563 116.728 765.189 117.305 764.786 117.862C761.246 122.771 758.578 126.667 756.856 129.443C756.517 129.988 756.065 130.455 755.531 130.811C754.996 131.167 754.392 131.404 753.758 131.507C753.124 131.61 752.475 131.576 751.856 131.407C751.236 131.238 750.66 130.938 750.166 130.528L739.305 121.53C739.246 121.481 739.188 121.431 739.132 121.379Z" fill="#3F3D56"/>
<path d="M776.717 33.1889C770.68 29.5869 769.373 20.6171 772.969 14.5771C776.566 8.53702 783.834 5.3863 790.861 5.17864C800.898 4.88201 810.591 9.87955 817.617 17.0536C824.643 24.2277 829.279 33.411 832.811 42.8104C836.344 52.2098 838.88 61.9584 842.361 71.377C844.148 76.2101 846.347 81.1727 850.434 84.3112C854.52 87.4497 861.016 88.0159 864.51 84.2282C864.497 90.2893 859.85 95.7991 854.087 97.6757C848.323 99.5523 841.804 98.1351 836.751 94.7869C827.987 88.9785 823.755 78.3756 821.336 68.1429C818.917 57.9101 817.726 47.1875 812.862 37.8651C810.847 34.0025 808.086 30.3334 804.201 28.3625C800.315 26.3916 795.139 26.5211 792.014 29.5562C790.566 30.962 789.629 32.8789 787.986 34.0508C786.947 34.7009 785.772 35.1049 784.553 35.2319C783.333 35.3589 782.101 35.2055 780.95 34.7835C778.657 33.9213 776.511 32.7104 774.588 31.1935" fill="#2F2E41"/>
<path d="M757.075 51.1737C759.442 54.3563 762.428 57.0267 765.855 59.0241C769.282 61.0215 773.077 62.3045 777.013 62.7957C780.949 63.287 784.943 62.9764 788.755 61.8826C792.568 60.7888 796.119 58.9344 799.196 56.4313C801.581 54.491 803.796 51.8171 803.646 48.7463C803.493 45.601 800.922 43.1307 798.297 41.3911C791.392 36.8524 783.087 34.9441 774.893 36.0135C770.218 36.6417 765.529 38.3456 762.219 41.7056C758.908 45.0656 757.258 50.2914 758.966 54.6884" fill="#2F2E41"/>
</g>
<defs>
<clipPath id="clip0_6_261">
<rect width="922" height="412" fill="white"/>
</clipPath>
</defs>
</svg>
